<svg width="153" height="140" viewBox="0 0 153 140" fill="none" xmlns="http://www.w3.org/2000/svg">
<path d="M91.4778 72.7293C85.6881 73.3997 79.9328 73.6346 74.2122 73.434L73.094 143.477C74.1345 143.537 75.2572 143.575 76.4622 143.59C79.5862 143.766 82.2616 143.301 84.4882 142.195C85.544 141.821 86.1236 140.98 86.2268 139.669C87.2928 116.179 89.0432 93.8659 91.4778 72.7293ZM91.6002 71.6881C91.7051 70.7877 91.8108 69.8897 91.9172 68.9941C85.7536 69.8926 79.8698 70.229 74.2658 70.0031L74.2265 72.5058C79.894 72.7027 85.6854 72.4302 91.6002 71.6881ZM67.9027 73.036C65.6421 72.829 63.3879 72.5537 61.1401 72.2097C62.8352 91.8609 63.5533 114.54 63.2945 140.247C63.6578 141.202 64.7395 141.953 66.5395 142.499L67.9027 73.036ZM60.7808 68.257C60.8716 69.2182 60.9603 70.188 61.0467 71.1663C63.3172 71.5557 65.6083 71.8638 67.92 72.0907L67.971 69.4999C65.5161 69.2021 63.1193 68.7879 60.7808 68.257Z" fill="#7176F7"/>
<path d="M91.478 72.7293C91.5191 72.3827 91.5599 72.0357 91.6004 71.6881C85.6856 72.4302 79.8944 72.7027 74.2268 72.5057L74.2125 73.4339C79.9331 73.6345 85.6884 73.3997 91.4781 72.7292M82.0148 61.0454C79.5389 61.1086 77.0042 61.0575 74.4106 60.8924L74.2661 70.003C79.87 70.2288 85.7539 69.8925 91.9175 68.994C92.2823 65.9502 92.6613 62.9321 93.0543 59.9397C89.5165 60.5804 85.8366 60.949 82.0148 61.0454ZM61.0469 71.1663C61.0777 71.5128 61.1088 71.8607 61.1404 72.2099C63.3882 72.5538 65.6423 72.8293 67.903 73.0361L67.9202 72.0907C65.6085 71.8638 63.3174 71.5557 61.0469 71.1663ZM59.7956 58.881C59.7916 58.88 59.7876 58.8792 59.7835 58.8782C60.1416 61.92 60.4742 65.0462 60.7812 68.2569C63.1196 68.7878 65.5163 69.2021 67.9712 69.4999L68.15 60.2845C65.4264 59.935 62.6416 59.4671 59.7958 58.8809L59.7956 58.881Z" fill="#535AF2"/>
<path d="M66.5399 142.498C68.1499 142.986 70.3347 143.312 73.0943 143.475L74.2125 73.4326C72.1035 73.3591 70.0003 73.2265 67.9029 73.0347L66.5399 142.498ZM67.9711 69.4985L67.9201 72.0893C70.005 72.2931 72.1072 72.4315 74.2268 72.5044L74.2661 70.0017C72.1255 69.9153 70.0271 69.7475 67.9711 69.4985Z" fill="#7176F7"/>
<path d="M67.9196 72.0902L67.9024 73.0355C69.9998 73.2274 72.103 73.36 74.212 73.4335L74.2263 72.5053C72.1067 72.4324 70.0045 72.294 67.9196 72.0902ZM69.3702 60.4337C68.9656 60.3872 68.5586 60.3373 68.1493 60.2841L67.9705 69.4995C70.0265 69.7485 72.1249 69.9163 74.2655 70.0027L74.41 60.8921C72.754 60.7852 71.074 60.6325 69.3701 60.4338L69.3702 60.4337Z" fill="#535AF2"/>
<path d="M95.6084 53.3538C95.7089 53.2464 95.8077 53.1391 95.905 53.0316C83.1883 55.6574 70.3724 55.4745 57.4574 52.4829C57.5483 52.5896 57.6413 52.6958 57.7361 52.8018C61.2335 53.7327 64.7425 54.4173 68.2632 54.8555C77.3073 55.9808 86.4222 55.4802 95.6084 53.3538ZM102.212 32.6959C102.21 32.6804 102.208 32.6639 102.206 32.6467C102.197 32.5755 102.188 32.5032 102.179 32.4303C85.9049 34.5646 69.1578 34.0209 51.9374 30.7994C51.9181 30.8946 51.8993 30.9903 51.8809 31.0864C51.8798 31.0938 51.8789 31.101 51.878 31.1085C68.5416 34.3185 85.3197 34.8477 102.212 32.696L102.212 32.6959Z" fill="#B9BBC6"/>
<path d="M95.6546 53.3414C95.6381 53.346 95.6229 53.3502 95.6089 53.354C86.4229 55.4803 77.3077 55.9808 68.2637 54.8557C64.7432 54.4174 61.2342 53.7328 57.7367 52.802C57.7318 52.8002 57.7277 52.7993 57.7245 52.7992C57.836 54.4878 58.5265 56.5147 59.7958 58.8799C62.6418 59.466 65.4266 59.934 68.15 60.2835C68.5594 60.3368 68.9664 60.3867 69.3709 60.4332C71.0749 60.6318 72.7547 60.7847 74.4109 60.8915C77.0044 61.0567 79.5392 61.1076 82.0151 61.0445C85.8369 60.9481 89.5168 60.5794 93.0546 59.9387C94.0416 59.052 94.9082 56.853 95.6546 53.3417M63.3094 57.5246C60.4073 56.3395 58.8862 55.1705 58.7465 54.0177C61.9586 54.5752 65.1278 54.9991 68.2543 55.2897C77.5518 56.1548 86.4686 55.8416 95.0044 54.3502C94.3513 56.4889 93.6024 58.2409 92.7578 59.6058C86.2825 60.5816 80.1717 60.7265 74.4249 60.0403C72.2921 59.7846 70.2101 59.4157 68.1789 58.9335C66.5218 58.5395 64.8987 58.0699 63.3095 57.5245M102.206 32.6469C102.208 32.6642 102.21 32.6804 102.212 32.6961C85.3201 34.8479 68.5422 34.3187 51.8784 31.1085C51.8795 31.1012 51.8804 31.094 51.8813 31.0865C50.8455 32.1128 50.2633 33.3156 50.1348 34.6948C50.0367 36.616 50.5328 38.1695 51.6229 39.3557C51.6251 39.368 51.6269 39.3807 51.6282 39.3939C51.6445 39.3976 51.6603 39.4006 51.6758 39.4035C67.8359 42.9753 84.0562 43.8174 100.337 41.9292C100.333 41.9324 100.33 41.9364 100.327 41.9412L100.35 41.9258C100.82 41.8717 101.291 41.8149 101.762 41.7559C101.773 41.7537 101.784 41.7518 101.795 41.7505C101.793 41.7595 101.791 41.7684 101.79 41.7774C103.984 38.8459 104.123 35.8024 102.206 32.6469M100.848 33.9514C101.452 34.1349 101.976 35.0795 102.419 36.7853C102.86 38.4901 102.15 39.7446 100.29 40.5482C85.2796 42.4323 70.1219 41.977 54.8172 39.1821C51.4525 37.4265 50.6207 35.0956 52.322 32.1892C68.4969 35.1612 84.6722 35.7486 100.848 33.9515L100.848 33.9514Z" fill="#9FA1A9"/>
<path d="M58.7456 54.0191C58.8854 55.1719 60.4064 56.3409 63.3086 57.526C64.8977 58.0713 66.5208 58.541 68.1779 58.935C70.2092 59.4173 72.2913 59.7863 74.424 60.0418C80.1707 60.728 86.2817 60.583 92.7569 59.6073C93.6016 58.2423 94.3503 56.4903 95.0034 54.3517C86.4675 55.843 77.5509 56.1561 68.2533 55.2912C65.1269 55.0006 61.9576 54.5767 58.7455 54.0192M102.418 36.7867C101.975 35.0809 101.451 34.1363 100.847 33.9528C84.6715 35.7499 68.4962 35.1625 52.3212 32.1905C50.62 35.0969 51.4518 37.4278 54.8165 39.1834C70.1212 41.9784 85.2787 42.4338 100.289 40.5496C102.149 39.7459 102.859 38.4915 102.418 36.7866L102.418 36.7867Z" fill="#9FA1A9"/>
<path d="M102.179 32.4321C101.491 27.1392 99.2074 22.4656 95.3283 18.4116C90.4629 13.3266 84.513 10.7064 77.4788 10.5513C70.4446 10.3961 64.3852 12.7512 59.3001 17.6168C55.3814 21.3664 52.9272 25.7613 51.9377 30.8012C69.158 34.0229 85.905 34.5664 102.179 32.4321ZM71.6881 21.5576C69.5244 22.0389 68.6325 21.1737 69.0124 18.9619C69.3915 16.7508 70.9161 15.0688 73.5862 13.9158C76.2537 12.7635 79.2845 12.4791 82.6784 13.0627C86.0732 13.6453 88.8363 14.9253 90.968 16.9022C93.0989 18.8782 93.9746 20.9719 93.5955 23.1827C93.2154 25.3946 91.6982 26.5207 89.0439 26.5611C86.3899 26.6013 83.3743 25.6574 79.9974 23.7292C76.6213 21.8003 73.8516 21.0763 71.6883 21.5576M100.35 41.9276L100.327 41.943C100.33 41.938 100.333 41.9341 100.337 41.9309C84.0563 43.819 67.8358 42.977 51.6757 39.4052C51.6603 39.4024 51.6443 39.3992 51.6281 39.3956C52.2195 44.2832 54.1626 48.6463 57.4578 52.4846C70.3729 55.4762 83.1887 55.6592 95.9054 53.0334C98.9056 49.7403 100.867 45.9888 101.79 41.779C101.791 41.77 101.793 41.7611 101.795 41.7521C101.784 41.7535 101.773 41.7553 101.762 41.7575C101.291 41.8166 100.82 41.8733 100.35 41.9274L100.35 41.9276Z" fill="#B9BBC6"/>
<path d="M69.012 18.9593C68.6323 21.171 69.524 22.0364 71.6877 21.555C73.8511 21.0737 76.6208 21.7977 79.9968 23.7266C83.3737 25.6548 86.3893 26.5987 89.0433 26.5585C91.6976 26.5182 93.2149 25.3921 93.5949 23.1802C93.974 20.9691 93.0982 18.8755 90.9674 16.8996C88.8358 14.9227 86.0727 13.6429 82.6778 13.0601C79.284 12.4767 76.2532 12.761 73.5856 13.9132C70.9157 15.0661 69.3909 16.7482 69.0118 18.9593L69.012 18.9593Z" fill="#B9BBC6"/>
<path d="M73.8483 102.528L73.836 103.149L78.6924 103.245C79.3368 103.259 79.8915 103.027 80.3565 102.552C80.8215 102.075 81.0607 101.494 81.0739 100.808L81.4064 84.3689C81.4197 83.6833 81.2036 83.0938 80.7582 82.6001C80.3128 82.1048 79.7679 81.8505 79.1235 81.8371L74.263 81.7395L74.2521 82.2976L78.9629 82.4015C79.5717 82.415 80.0872 82.6564 80.5093 83.1257C80.9316 83.5931 81.1368 84.151 81.1252 84.799L80.8402 100.334C80.8296 100.981 80.6048 101.53 80.166 101.98C79.7272 102.429 79.2035 102.646 78.5947 102.633L73.8481 102.528L73.8483 102.528Z" fill="#535AF2"/>
<path d="M71.6558 101.792C71.2335 101.325 71.0282 100.767 71.0398 100.119L71.3235 84.5825C71.3341 83.9353 71.5589 83.3866 71.9977 82.9362C72.4365 82.4878 72.9602 82.2703 73.569 82.2837L74.2519 82.2988L74.2628 81.7407L73.4154 81.7247C72.771 81.7113 72.2163 81.9425 71.7513 82.4177C71.2864 82.8948 71.0472 83.4761 71.0339 84.1617L70.7015 100.601C70.6882 101.287 70.9042 101.876 71.3496 102.37C71.795 102.865 72.3399 103.119 72.9843 103.133L73.8357 103.15L73.848 102.529L73.2009 102.515C72.5921 102.501 72.0772 102.261 71.6559 101.792L71.6558 101.792Z" fill="#535AF2"/>
<path d="M80.5095 83.127C80.0874 82.6577 79.5718 82.4164 78.9631 82.4029L74.2523 82.299L73.8485 102.53L78.595 102.634C79.2039 102.648 79.7276 102.43 80.1664 101.982C80.6051 101.531 80.8299 100.983 80.8405 100.335L81.1256 84.8004C81.1371 84.1524 80.9318 83.5945 80.5096 83.1272L80.5095 83.127Z" fill="#535AF2"/>
<path d="M71.0394 100.118C71.0279 100.766 71.2332 101.324 71.6554 101.791C72.0766 102.26 72.5918 102.501 73.2004 102.514L73.8475 102.528L74.2513 82.2978L73.5685 82.2828C72.9596 82.2693 72.4359 82.4868 71.9971 82.9353C71.5584 83.3856 71.3336 83.9343 71.323 84.5815L71.0393 100.118L71.0394 100.118Z" fill="#535AF2"/>
<path d="M74.2119 84.2998L74.2389 82.9534L73.8633 82.9451C73.334 82.9344 72.8803 83.0661 72.502 83.3403C72.1228 83.6173 71.9288 83.9559 71.92 84.3563L71.7274 93.9567C71.7195 94.358 71.8988 94.7035 72.2655 94.9931C72.6332 95.2856 73.0811 95.4368 73.6094 95.4467L73.9892 95.4538L73.9993 94.9286L73.7238 94.9239C73.2741 94.9157 72.8933 94.7871 72.5815 94.5379C72.2696 94.2924 72.117 93.999 72.1236 93.6582L72.2873 85.4948C72.2948 85.1549 72.4597 84.8672 72.7823 84.632C73.1048 84.3987 73.4904 84.2864 73.9392 84.2954L74.212 84.3002L74.2119 84.2998Z" fill="#D6D7D7"/>
<path d="M77.9123 84.3738C78.3611 84.3828 78.7424 84.511 79.056 84.7584C79.3679 85.0057 79.5201 85.2994 79.5124 85.6395L79.3476 93.8016C79.341 94.1425 79.1769 94.4301 78.8553 94.6644C78.5328 94.8997 78.1476 95.0124 77.6998 95.0024L73.9992 94.9276L73.989 95.4528L78.286 95.5394C78.8126 95.551 79.2653 95.4183 79.6445 95.1413C80.0237 94.8662 80.2173 94.528 80.2251 94.1267L80.4178 84.5263C80.4266 84.126 80.2477 83.78 79.881 83.4885C79.5125 83.1987 79.0646 83.0485 78.5371 83.0377L74.2387 82.9524L74.2118 84.2989L77.9124 84.3737L77.9123 84.3738Z" fill="#CDCCCC"/>
<path d="M74.2119 84.2997L73.9391 84.295C73.4903 84.2859 73.1047 84.3982 72.7822 84.6315C72.4597 84.8668 72.2947 85.1544 72.2872 85.4943L72.1235 93.6578C72.117 93.9987 72.2696 94.292 72.5814 94.5375C72.8933 94.7867 73.2741 94.9154 73.7237 94.9234L73.9992 94.9281L74.2118 84.2993L74.2119 84.2997Z" fill="#E6E2E1"/>
<path d="M79.0555 84.7595C78.7418 84.512 78.3606 84.3838 77.9118 84.3749L74.2112 84.3001L73.9986 94.9289L77.6993 95.0037C78.1472 95.0136 78.5323 94.9009 78.8548 94.6657C79.1763 94.4314 79.3405 94.1437 79.347 93.8028L79.5119 85.6407C79.5194 85.3008 79.3672 85.007 79.0554 84.7596L79.0555 84.7595Z" fill="#DEDEDE"/>
</svg>
