<svg width="116" height="113" viewBox="0 0 116 113" fill="none" xmlns="http://www.w3.org/2000/svg">
<g clip-path="url(#clip0_41_888)">
<g filter="url(#filter0_d_41_888)">
<path d="M111.901 76.0289L92.6996 1.32223L4.20703 24.0674L26.9522 112.56L101.659 93.3581L111.901 76.0289Z" fill="#FF9CC5"/>
<path d="M4.44731 24.2094L92.5575 1.56252L111.69 75.9988L101.531 93.1873L27.0942 112.32L4.44731 24.2094Z" stroke="#1E1E1E" stroke-width="0.394726"/>
</g>
<path d="M98.356 79.7143L111.489 76.3387L101.732 92.8475L98.356 79.7143Z" fill="#E98198" stroke="#1E1E1E" stroke-width="0.394726"/>
</g>
<mask id="mask0_41_888" style="mask-type:alpha" maskUnits="userSpaceOnUse" x="-1" y="-1" width="40" height="40">
<rect x="-0.240281" y="7.55915" width="31.3284" height="31.3284" transform="rotate(-14.4147 -0.240281 7.55915)" fill="#D9D9D9" stroke="#1E1E1E" stroke-width="0.394726"/>
</mask>
<g mask="url(#mask0_41_888)">
<path d="M13.7383 12.4628L13.5471 12.5119L13.5963 12.7031L16.413 23.6619C16.6452 24.5654 17.1625 25.256 17.9588 25.7229C18.7543 26.1894 19.6061 26.3079 20.5024 26.0775C21.3993 25.847 22.0839 25.3309 22.5457 24.5357C23.0069 23.7415 23.1228 22.8912 22.8928 21.9964L20.1625 11.3736C19.7795 9.88362 18.9328 8.74421 17.628 7.96596C16.3227 7.1874 14.9186 6.98976 13.4281 7.37287C11.9376 7.75597 10.8028 8.60616 10.0347 9.91766C9.26689 11.2286 9.07458 12.6351 9.45755 14.1251L12.3422 25.348C12.8761 27.4252 14.0589 29.0121 15.8848 30.0984C17.7109 31.1849 19.667 31.4619 21.7412 30.9288C23.8153 30.3957 25.3936 29.2102 26.4655 27.3787C27.5371 25.5476 27.806 23.5876 27.2722 21.5106L24.3012 9.95159L24.2521 9.76044L24.0609 9.80957L22.1885 10.2908L21.9973 10.34L22.0465 10.5311L25.017 22.0884C25.3673 23.5553 25.1707 24.9234 24.428 26.2037C23.6857 27.4832 22.6017 28.3039 21.166 28.6729C19.7081 29.0476 18.3439 28.8555 17.0612 28.0961C15.779 27.3369 14.9598 26.2318 14.5973 24.7701L14.5969 24.7685L11.7123 13.5456C11.488 12.6729 11.5982 11.8621 12.0419 11.1011C12.4853 10.3408 13.1368 9.85146 14.0076 9.62763C14.8829 9.40265 15.6865 9.5163 16.4314 9.96603C17.178 10.4168 17.668 11.072 17.905 11.9425L20.6381 22.5759C20.7118 22.8627 20.6773 23.1198 20.5384 23.3596C20.4001 23.5983 20.1949 23.7529 19.9092 23.8263C19.6236 23.8997 19.3692 23.8633 19.133 23.7208C18.8957 23.5777 18.7415 23.3691 18.6678 23.0823L15.851 12.1235L15.8019 11.9324L15.6107 11.9815L13.7383 12.4628Z" fill="#B9BBC5" stroke="#1E1E1E" stroke-width="0.394726"/>
</g>
<defs>
<filter id="filter0_d_41_888" x="4.20703" y="1.32227" width="107.694" height="111.237" filterUnits="userSpaceOnUse" color-interpolation-filters="sRGB">
<feFlood flood-opacity="0" result="BackgroundImageFix"/>
<feColorMatrix in="SourceAlpha" type="matrix" values="0 0 0 0 0 0 0 0 0 0 0 0 0 0 0 0 0 0 127 0" result="hardAlpha"/>
<feOffset/>
<feComposite in2="hardAlpha" operator="out"/>
<feColorMatrix type="matrix" values="0 0 0 0 0.313726 0 0 0 0 0.411765 0 0 0 0 0.694118 0 0 0 1 0"/>
<feBlend mode="normal" in2="BackgroundImageFix" result="effect1_dropShadow_41_888"/>
<feBlend mode="normal" in="SourceGraphic" in2="effect1_dropShadow_41_888" result="shape"/>
</filter>
<clipPath id="clip0_41_888">
<rect width="91.3689" height="91.3689" fill="white" transform="translate(4.20703 24.0674) rotate(-14.4147)"/>
</clipPath>
</defs>
</svg>
